<svg xmlns="http://www.w3.org/2000/svg" width="82" height="127" viewBox="0 0 82 127">
    <g fill="none" fill-rule="evenodd" stroke="#89C26A">
        <path fill="#89C26A" d="M0 37.927c17.062-12.962 30.315-15.072 39.76-6.33C58.04 48.175 68.703 79.977 71.75 127c-2.363-10.634-6.019-18.622-10.968-23.964-40.217-13.564-26.507-39.789-36.56-54.71-5.79-6.33-13.863-9.796-24.222-10.4z"/>
        <path fill="#FFF" fill-opacity=".873" d="M82 108.694c-20.21-2.97-31.974-10.543-35.292-22.72C41.731 67.712 93.311 53.01 75.213 0 62.544 37.42 43.993 22.273 28.61 51.229c-9.35 32.37 8.446 51.525 53.39 57.465z"/>
    </g>
</svg>
