<svg xmlns="http://www.w3.org/2000/svg" width="100%" height="100%" viewBox="0 0 18 16">
    <path fill="#fbfbfb" fill-rule="evenodd" d="M17.778 16h-3.93v-5.625c0-1.472-.614-2.477-1.965-2.477-1.034 0-1.61.678-1.877 1.332-.1.235-.084.561-.084.888V16H6.029s.05-9.964 0-10.87h3.893v1.707c.23-.746 1.473-1.81 3.458-1.81 2.463 0 4.398 1.563 4.398 4.93V16zM2.093 3.771h-.025C.813 3.771 0 2.941 0 1.887 0 .813.837 0 2.117 0c1.278 0 2.064.811 2.09 1.884 0 1.053-.812 1.887-2.114 1.887zM.448 5.131h3.465V16H.448V5.13z"/>
</svg>
