<svg xmlns="http://www.w3.org/2000/svg" width="39" height="49" viewBox="0 0 39 49">
    <g fill="#414343" fill-rule="evenodd">
        <path d="M5.403 28.878c-1.723-.748-3.068-1.786-4.033-3.113C.404 24.44-.05 22.971.004 21.361c0-.367.138-.684.414-.952.276-.269.607-.403.993-.403.359.029.662.177.91.445.249.268.373.586.373.953-.028 1.072.324 2.06 1.055 2.964.73.903 1.758 1.61 3.082 2.117 1.324.508 2.785.762 4.385.762 3.062 0 5.489-.818 7.282-2.456 1.792-1.637 2.703-3.839 2.73-6.606v-7.834l.083-8.954c0-.395.138-.727.414-.995C22 .134 22.318 0 22.676 0c.359 0 .669.134.931.402s.393.586.393.953l-.083 8.996v7.114c.083 2.457-.386 4.637-1.406 6.543-1.02 1.906-2.517 3.38-4.49 4.425C16.05 29.478 13.768 30 11.176 30c-2.124 0-4.048-.374-5.772-1.122z"/>
        <path d="M19.83 44.714a13.617 13.617 0 0 1-2.493-3.758 14.725 14.725 0 0 1-1.2-4.524 15.417 15.417 0 0 1-.082-1.844 15.447 15.447 0 0 1 1.082-5.597 14.54 14.54 0 0 1 2.961-4.683c2.472-2.631 5.666-4.153 9.584-4.565.514-.054 1.315-.088 2.402-.104 2.034.033 4.104.332 6.118 1.368.317.189.495.466.533.833.034.317-.048.598-.245.84-.195.268-.488.422-.88.464-.318.033-.586-.038-.802-.212-1.678-.784-3.008-.867-4.767-.88-.718.001-1.407.037-2.069.106-3.305.348-6.007 1.607-8.106 3.78a12.157 12.157 0 0 0-2.5 3.949 13.316 13.316 0 0 0-.93 4.748c.018.64.043 1.119.077 1.436a12.651 12.651 0 0 0 1.02 3.876 10.467 10.467 0 0 0 2.089 3.097c1.283 1.372 2.848 2.306 4.695 2.804 1.847.498 3.787.64 5.819.426 1.298-.137 2.247-.251 4.003-.922.282-.108.48-.384.847-.422.343-.036.636.05.881.259.245.209.385.484.421.826.009.32-.071.616-.282.845-.734.798-2.49 1.43-5.55 1.752l-1.143.083c-4.765.352-8.593-.975-11.483-3.98z"/>
        <path d="M26.526 29.874c-.216.232-.47.388-.763.47-.293.082-.548.06-.766-.063-.253-.158-1.26-1.185-1.738-1.671l-1.896-1.827a177.117 177.117 0 0 1-3.42-3.248l-1.574-1.528c-.27-.211-.395-.496-.378-.854.018-.358.164-.685.44-.98a1.51 1.51 0 0 1 .903-.488c.348-.05.647.022.898.217l.749.698c.283.304.835.838 1.655 1.602a61.097 61.097 0 0 0 1.922 1.852c.426.437 1.004.996 1.735 1.677l.91.848c.319.324.718.753 1.198 1.285.606.566.727 1.132.364 1.7a1.54 1.54 0 0 1-.239.31z"/>
    </g>
</svg>
